<svg width="48" height="48" viewBox="0 0 48 48" fill="none" xmlns="http://www.w3.org/2000/svg">
<path d="M24 26.8L29.8 32.6C30.1667 32.9667 30.6333 33.15 31.2 33.15C31.7667 33.15 32.2333 32.9667 32.6 32.6C32.9667 32.2333 33.15 31.7667 33.15 31.2C33.15 30.6333 32.9667 30.1667 32.6 29.8L26.8 24L32.6 18.2C32.9667 17.8333 33.15 17.3667 33.15 16.8C33.15 16.2333 32.9667 15.7667 32.6 15.4C32.2333 15.0333 31.7667 14.85 31.2 14.85C30.6333 14.85 30.1667 15.0333 29.8 15.4L24 21.2L18.2 15.4C17.8333 15.0333 17.3667 14.85 16.8 14.85C16.2333 14.85 15.7667 15.0333 15.4 15.4C15.0333 15.7667 14.85 16.2333 14.85 16.8C14.85 17.3667 15.0333 17.8333 15.4 18.2L21.2 24L15.4 29.8C15.0333 30.1667 14.85 30.6333 14.85 31.2C14.85 31.7667 15.0333 32.2333 15.4 32.6C15.7667 32.9667 16.2333 33.15 16.8 33.15C17.3667 33.15 17.8333 32.9667 18.2 32.6L24 26.8ZM24 44C21.2333 44 18.6333 43.4747 16.2 42.424C13.7667 41.3733 11.65 39.9487 9.85 38.15C8.05 36.3513 6.62534 34.2347 5.576 31.8C4.52667 29.3653 4.00134 26.7653 4 24C3.99867 21.2347 4.524 18.6347 5.576 16.2C6.628 13.7653 8.05267 11.6487 9.85 9.85C11.6473 8.05133 13.764 6.62667 16.2 5.576C18.636 4.52533 21.236 4 24 4C26.764 4 29.364 4.52533 31.8 5.576C34.236 6.62667 36.3527 8.05133 38.15 9.85C39.9473 11.6487 41.3727 13.7653 42.426 16.2C43.4793 18.6347 44.004 21.2347 44 24C43.996 26.7653 43.4707 29.3653 42.424 31.8C41.3773 34.2347 39.9527 36.3513 38.15 38.15C36.3473 39.9487 34.2307 41.374 31.8 42.426C29.3693 43.478 26.7693 44.0027 24 44ZM24 40C28.4667 40 32.25 38.45 35.35 35.35C38.45 32.25 40 28.4667 40 24C40 19.5333 38.45 15.75 35.35 12.65C32.25 9.55 28.4667 8 24 8C19.5333 8 15.75 9.55 12.65 12.65C9.55 15.75 8 19.5333 8 24C8 28.4667 9.55 32.25 12.65 35.35C15.75 38.45 19.5333 40 24 40Z" fill="black"/>
</svg>