<svg width="32" height="32" viewBox="0 0 32 32" fill="none" xmlns="http://www.w3.org/2000/svg">
<path fill-rule="evenodd" clip-rule="evenodd" d="M10 2H22C26.4183 2 30 5.58172 30 10V22C30 26.4183 26.4183 30 22 30H10C5.58172 30 2 26.4183 2 22V10C2 5.58172 5.58172 2 10 2ZM0 10C0 4.47715 4.47715 0 10 0H22C27.5228 0 32 4.47715 32 10V22C32 27.5228 27.5228 32 22 32H10C4.47715 32 0 27.5228 0 22V10ZM10.4 16.8H6.39996V26.4H10.4V16.8ZM22.4 10.4H26.4V26.4H22.4V10.4ZM18.4 5.59999H14.4V26.4H18.4V5.59999Z" fill="white"/>
</svg>