<svg width="28" height="29" viewBox="0 0 28 29" fill="none" xmlns="http://www.w3.org/2000/svg">
<path fill-rule="evenodd" clip-rule="evenodd" d="M0 2.25C0 1.14543 0.895431 0.25 2 0.25H6.75C7.85457 0.25 8.75 1.14543 8.75 2.25V7C8.75 8.10457 7.85457 9 6.75 9H2C0.89543 9 0 8.10457 0 7V2.25ZM19.25 2.25C19.25 1.14543 20.1454 0.25 21.25 0.25H26C27.1046 0.25 28 1.14543 28 2.25V7C28 8.10457 27.1046 9 26 9H21.25C20.1454 9 19.25 8.10457 19.25 7V2.25ZM11.625 0.25C10.5204 0.25 9.625 1.14543 9.625 2.25V7C9.625 8.10457 10.5204 9 11.625 9H16.375C17.4796 9 18.375 8.10457 18.375 7V2.25C18.375 1.14543 17.4796 0.25 16.375 0.25H11.625ZM0 21.5C0 20.3954 0.895431 19.5 2 19.5H6.75C7.85457 19.5 8.75 20.3954 8.75 21.5V26.25C8.75 27.3546 7.85457 28.25 6.75 28.25H2C0.89543 28.25 0 27.3546 0 26.25V21.5ZM21.25 19.5C20.1454 19.5 19.25 20.3954 19.25 21.5V26.25C19.25 27.3546 20.1454 28.25 21.25 28.25H26C27.1046 28.25 28 27.3546 28 26.25V21.5C28 20.3954 27.1046 19.5 26 19.5H21.25ZM9.625 21.5C9.625 20.3954 10.5204 19.5 11.625 19.5H16.375C17.4796 19.5 18.375 20.3954 18.375 21.5V26.25C18.375 27.3546 17.4796 28.25 16.375 28.25H11.625C10.5204 28.25 9.625 27.3546 9.625 26.25V21.5ZM2 9.875C0.895431 9.875 0 10.7704 0 11.875V16.625C0 17.7296 0.89543 18.625 2 18.625H6.75C7.85457 18.625 8.75 17.7296 8.75 16.625V11.875C8.75 10.7704 7.85457 9.875 6.75 9.875H2ZM19.25 11.875C19.25 10.7704 20.1454 9.875 21.25 9.875H26C27.1046 9.875 28 10.7704 28 11.875V16.625C28 17.7296 27.1046 18.625 26 18.625H21.25C20.1454 18.625 19.25 17.7296 19.25 16.625V11.875ZM11.625 9.875C10.5204 9.875 9.625 10.7704 9.625 11.875V16.625C9.625 17.7296 10.5204 18.625 11.625 18.625H16.375C17.4796 18.625 18.375 17.7296 18.375 16.625V11.875C18.375 10.7704 17.4796 9.875 16.375 9.875H11.625Z" fill="white"/>
</svg>