<svg width="32" height="32" viewBox="0 0 32 32" fill="none" xmlns="http://www.w3.org/2000/svg">
<path fill-rule="evenodd" clip-rule="evenodd" d="M0 2C0 0.89543 0.895431 0 2 0H8C9.10457 0 10 0.895431 10 2V8C10 9.10457 9.10457 10 8 10H2C0.89543 10 0 9.10457 0 8V2ZM22 2C22 0.89543 22.8954 0 24 0H30C31.1046 0 32 0.895431 32 2V8C32 9.10457 31.1046 10 30 10H24C22.8954 10 22 9.10457 22 8V2ZM13 0C11.8954 0 11 0.89543 11 2V8C11 9.10457 11.8954 10 13 10H19C20.1046 10 21 9.10457 21 8V2C21 0.895431 20.1046 0 19 0H13ZM0 24C0 22.8954 0.895431 22 2 22H8C9.10457 22 10 22.8954 10 24V30C10 31.1046 9.10457 32 8 32H2C0.89543 32 0 31.1046 0 30V24ZM24 22C22.8954 22 22 22.8954 22 24V30C22 31.1046 22.8954 32 24 32H30C31.1046 32 32 31.1046 32 30V24C32 22.8954 31.1046 22 30 22H24ZM11 24C11 22.8954 11.8954 22 13 22H19C20.1046 22 21 22.8954 21 24V30C21 31.1046 20.1046 32 19 32H13C11.8954 32 11 31.1046 11 30V24ZM2 11C0.895431 11 0 11.8954 0 13V19C0 20.1046 0.89543 21 2 21H8C9.10457 21 10 20.1046 10 19V13C10 11.8954 9.10457 11 8 11H2ZM22 13C22 11.8954 22.8954 11 24 11H30C31.1046 11 32 11.8954 32 13V19C32 20.1046 31.1046 21 30 21H24C22.8954 21 22 20.1046 22 19V13ZM13 11C11.8954 11 11 11.8954 11 13V19C11 20.1046 11.8954 21 13 21H19C20.1046 21 21 20.1046 21 19V13C21 11.8954 20.1046 11 19 11H13Z" fill="black"/>
</svg>
