<svg width="32" height="32" viewBox="0 0 32 32" fill="none" xmlns="http://www.w3.org/2000/svg">
<path d="M20.7374 20.7373C21.6115 19.8632 22.305 18.8254 22.7781 17.6832C23.2511 16.5411 23.4946 15.3169 23.4946 14.0807C23.4946 12.8444 23.2511 11.6203 22.7781 10.4781C22.305 9.33595 21.6115 8.29817 20.7374 7.424C19.8632 6.54983 18.8254 5.85641 17.6833 5.38331C16.5411 4.91022 15.317 4.66672 14.0807 4.66672C12.8444 4.66672 11.6203 4.91022 10.4781 5.38331C9.33598 5.85641 8.2982 6.54983 7.42403 7.424C5.65857 9.18946 4.66675 11.5839 4.66675 14.0807C4.66675 16.5774 5.65857 18.9719 7.42403 20.7373C9.18949 22.5028 11.584 23.4946 14.0807 23.4946C16.5774 23.4946 18.9719 22.5028 20.7374 20.7373ZM20.7374 20.7373L26.6667 26.6667" stroke="black" stroke-width="3" stroke-linecap="round" stroke-linejoin="round"/>
</svg>